<svg xmlns="http://www.w3.org/2000/svg" viewBox="0 0 800 400" width="100%" height="100%" style="font-family: system-ui, -apple-system, sans-serif;">
  
  <defs>
    <style>
      :root {
        /* Colores Base */
        --bg-color: #030912;
        --dark-color: #1a222a;
        --copper-color: #b56e4c;
        --guide-color: rgba(255, 255, 255, 0.15);
      }

      /* Clases de trazado múltiple */
      .track-outer { fill: none; stroke-width: 70px; }
      .track-outer-mask { fill: none; stroke: var(--bg-color); stroke-width: 68px; }
      .track-main { fill: none; stroke-width: 40px; }
      .track-inner-mask { fill: none; stroke: var(--bg-color); stroke-width: 16px; }
      .track-center { fill: none; stroke-width: 2px; }
      
      .guide { fill: none; stroke: var(--guide-color); stroke-width: 1px; }
      .node-bg { fill: var(--bg-color); }
    </style>
  </defs>

  <g id="guidelines">
    <path class="guide" d="M 80 200 L 180 200 M 130 150 L 130 250" />
    <path class="guide" d="M 620 200 L 720 200 M 670 150 L 670 250" />
    <path class="guide" d="M 350 200 L 450 200 M 400 150 L 400 250" />
  </g>

  <g id="right-loop">
    <path class="track-outer" stroke="var(--copper-color)" d="M 400 200 C 440 280, 484 320, 550 320 A 120 120 0 0 0 670 200 A 120 120 0 0 0 550 80 C 484 80, 440 120, 400 200" />
    <path class="track-outer-mask" d="M 400 200 C 440 280, 484 320, 550 320 A 120 120 0 0 0 670 200 A 120 120 0 0 0 550 80 C 484 80, 440 120, 400 200" />
    
    <path class="track-main" stroke="var(--copper-color)" d="M 400 200 C 440 280, 484 320, 550 320 A 120 120 0 0 0 670 200 A 120 120 0 0 0 550 80 C 484 80, 440 120, 400 200" />
    
    <path class="track-inner-mask" d="M 400 200 C 440 280, 484 320, 550 320 A 120 120 0 0 0 670 200 A 120 120 0 0 0 550 80 C 484 80, 440 120, 400 200" />
    
    <path class="track-center" stroke="var(--copper-color)" d="M 400 200 C 440 280, 484 320, 550 320 A 120 120 0 0 0 670 200 A 120 120 0 0 0 550 80 C 484 80, 440 120, 400 200" />
  </g>

  <g id="left-loop">
    <path class="track-outer" stroke="var(--dark-color)" d="M 400 200 C 360 120, 316 80, 250 80 A 120 120 0 0 0 130 200 A 120 120 0 0 0 250 320 C 316 320, 360 280, 400 200" />
    <path class="track-outer-mask" d="M 400 200 C 360 120, 316 80, 250 80 A 120 120 0 0 0 130 200 A 120 120 0 0 0 250 320 C 316 320, 360 280, 400 200" />
    
    <path class="track-main" stroke="var(--dark-color)" d="M 400 200 C 360 120, 316 80, 250 80 A 120 120 0 0 0 130 200 A 120 120 0 0 0 250 320 C 316 320, 360 280, 400 200" />
    
    <path class="track-inner-mask" d="M 400 200 C 360 120, 316 80, 250 80 A 120 120 0 0 0 130 200 A 120 120 0 0 0 250 320 C 316 320, 360 280, 400 200" />
    
    <path class="track-center" stroke="var(--dark-color)" d="M 400 200 C 360 120, 316 80, 250 80 A 120 120 0 0 0 130 200 A 120 120 0 0 0 250 320 C 316 320, 360 280, 400 200" />
  </g>

  <g id="nodes">
    <circle cx="130" cy="200" r="36" class="node-bg" />
    <circle cx="130" cy="200" r="30" fill="none" stroke="var(--dark-color)" stroke-width="2"/>
    <circle cx="130" cy="200" r="22" fill="none" stroke="var(--dark-color)" stroke-width="6"/>
    <circle cx="130" cy="200" r="12" fill="none" stroke="var(--dark-color)" stroke-width="2"/>

    <circle cx="670" cy="200" r="36" class="node-bg" />
    <circle cx="670" cy="200" r="30" fill="none" stroke="var(--copper-color)" stroke-width="2"/>
    <circle cx="670" cy="200" r="22" fill="none" stroke="var(--copper-color)" stroke-width="6"/>
    <circle cx="670" cy="200" r="12" fill="none" stroke="var(--copper-color)" stroke-width="2"/>

    <circle cx="400" cy="200" r="45" class="node-bg" />
    <circle cx="400" cy="200" r="40" fill="none" stroke="var(--guide-color)" stroke-width="2"/>
    <circle cx="400" cy="200" r="32" fill="none" stroke="var(--dark-color)" stroke-width="4"/>
    <circle cx="400" cy="200" r="24" fill="none" stroke="var(--copper-color)" stroke-width="4"/>
    <circle cx="400" cy="200" r="14" class="node-bg" stroke="var(--guide-color)" stroke-width="2"/>
  </g>

  <g id="arrows">
    <polygon points="255,75 245,80 255,85" fill="var(--dark-color)" />
    <polygon points="245,315 255,320 245,325" fill="var(--dark-color)" />
    
    <polygon points="545,75 555,80 545,85" fill="var(--copper-color)" />
    <polygon points="555,315 545,320 555,325" fill="var(--copper-color)" />
  </g>
</svg>
