<svg xmlns="http://www.w3.org/2000/svg" viewBox="0 0 800 400" width="100%" height="100%" style="font-family: system-ui, -apple-system, sans-serif;">
  
  <defs>
    <style>
      :root {
        /* Colores Base Llamativos */
        --bg-color: #030912;
        --left-color: #0077ff; /* Electric Blue */
        --right-color: #ffaa00; /* Vibrant Gold */
        --guide-color: rgba(255, 255, 255, 0.15);
      }

      /* Clases de trazado múltiple */
      .track-outer { fill: none; stroke-width: 70px; }
      .track-outer-mask { fill: none; stroke: var(--bg-color); stroke-width: 68px; }
      .track-main { fill: none; stroke-width: 40px; }
      .track-inner-mask { fill: none; stroke: var(--bg-color); stroke-width: 16px; }
      .track-center { fill: none; stroke-width: 2px; }
      
      .guide { fill: none; stroke: var(--guide-color); stroke-width: 1px; }
      .node-bg { fill: var(--bg-color); }
      
      /* Light Trace Styling */
      .light-trace {
        fill: none;
        stroke-width: 8px;
        stroke-linecap: round;
        stroke-dasharray: 15 100;
        stroke-dashoffset: 100;
      }
      .trace-left { stroke: url(#left-glow); filter: drop-shadow(0 0 15px #00aaff); }
      .trace-right { stroke: url(#right-glow); filter: drop-shadow(0 0 15px #ffcc00); }
    </style>
    
    <linearGradient id="left-glow" x1="0%" y1="0%" x2="100%" y2="0%">
      <stop offset="0%" stop-color="#fff" />
      <stop offset="50%" stop-color="#00aaff" />
      <stop offset="100%" stop-color="#0077ff" />
    </linearGradient>
    <linearGradient id="half-half" gradientUnits="userSpaceOnUse" x1="0" y1="0" x2="800" y2="0">
      <stop offset="0%" stop-color="var(--left-color)" />
      <stop offset="50%" stop-color="var(--left-color)" />
      <stop offset="50%" stop-color="var(--right-color)" />
      <stop offset="100%" stop-color="var(--right-color)" />
    </linearGradient>
  </defs>

  <g id="guidelines">
    <path class="guide" d="M 80 200 L 180 200 M 130 150 L 130 250" />
    <path class="guide" d="M 620 200 L 720 200 M 670 150 L 670 250" />
    <path class="guide" d="M 350 200 L 450 200 M 400 150 L 400 250" />
  </g>

  <!-- Loop Under: Left Edge -> Bottom Left -> Center -> Top Right -> Right Edge -->
  <g id="loop-under">
    <path class="track-outer" stroke="var(--right-color)" d="M 130 200 A 120 120 0 0 0 250 320 C 316 320, 360 280, 400 200 C 440 120, 484 80, 550 80 A 120 120 0 0 1 670 200" />
    <path class="track-outer-mask" stroke="var(--bg-color)" d="M 130 200 A 120 120 0 0 0 250 320 C 316 320, 360 280, 400 200 C 440 120, 484 80, 550 80 A 120 120 0 0 1 670 200" />
    
    <path class="track-main" stroke="rgba(255,255,255,0.6)" d="M 130 200 A 120 120 0 0 0 250 320 C 316 320, 360 280, 400 200 C 440 120, 484 80, 550 80 A 120 120 0 0 1 670 200" />
    
    <path class="track-inner-mask" stroke="var(--bg-color)" d="M 130 200 A 120 120 0 0 0 250 320 C 316 320, 360 280, 400 200 C 440 120, 484 80, 550 80 A 120 120 0 0 1 670 200" />
    
    <path class="track-center" stroke="var(--right-color)" d="M 130 200 A 120 120 0 0 0 250 320 C 316 320, 360 280, 400 200 C 440 120, 484 80, 550 80 A 120 120 0 0 1 670 200" />
    
    <!-- Light Trace Under (Path 1: TL -> BL -> TR) -->
    <path class="light-trace trace-under" stroke="url(#half-half)" d="M 250 80 A 120 120 0 0 0 130 200 A 120 120 0 0 0 250 320 C 316 320, 360 280, 400 200 C 440 120, 484 80, 550 80" pathLength="100" />
  </g>

  <!-- Loop Over: Right Edge -> Bottom Right -> Center -> Top Left -> Left Edge -->
  <g id="loop-over">
    <path class="track-outer" stroke="var(--right-color)" d="M 670 200 A 120 120 0 0 1 550 320 C 484 320, 440 280, 400 200 C 360 120, 316 80, 250 80 A 120 120 0 0 0 130 200" />
    <path class="track-outer-mask" stroke="var(--bg-color)" d="M 670 200 A 120 120 0 0 1 550 320 C 484 320, 440 280, 400 200 C 360 120, 316 80, 250 80 A 120 120 0 0 0 130 200" />
    
    <path class="track-main" stroke="rgba(255,255,255,0.6)" d="M 670 200 A 120 120 0 0 1 550 320 C 484 320, 440 280, 400 200 C 360 120, 316 80, 250 80 A 120 120 0 0 0 130 200" />
    
    <path class="track-inner-mask" stroke="var(--bg-color)" d="M 670 200 A 120 120 0 0 1 550 320 C 484 320, 440 280, 400 200 C 360 120, 316 80, 250 80 A 120 120 0 0 0 130 200" />
    
    <path class="track-center" stroke="var(--right-color)" d="M 670 200 A 120 120 0 0 1 550 320 C 484 320, 440 280, 400 200 C 360 120, 316 80, 250 80 A 120 120 0 0 0 130 200" />
    
    <!-- Light Trace Over (Path 2: TR -> BR -> TL) -->
    <path class="light-trace trace-over" stroke="url(#half-half)" d="M 550 80 A 120 120 0 0 1 670 200 A 120 120 0 0 1 550 320 C 484 320, 440 280, 400 200 C 360 120, 316 80, 250 80" pathLength="100" />
  </g>

  <g id="nodes">
    <!-- Node 1: Top Left -->
    <circle cx="250" cy="80" r="36" class="node-bg" />
    <circle cx="250" cy="80" r="30" fill="none" stroke-width="2" class="l3-node-circle l3-node-1"/>
    <text x="250" y="82" font-family="serif" font-size="28" font-weight="700" text-anchor="middle" dominant-baseline="middle" class="l3-node-text l3-node-1">1</text>

    <!-- Node 2: Bottom Left -->
    <circle cx="250" cy="320" r="36" class="node-bg" />
    <circle cx="250" cy="320" r="30" fill="none" stroke-width="2" class="l3-node-circle l3-node-2"/>
    <text x="250" y="322" font-family="serif" font-size="28" font-weight="700" text-anchor="middle" dominant-baseline="middle" class="l3-node-text l3-node-2">2</text>

    <!-- Node 3: Top Right -->
    <circle cx="550" cy="80" r="36" class="node-bg" />
    <circle cx="550" cy="80" r="30" fill="none" stroke-width="2" class="l3-node-circle l3-node-3"/>
    <text x="550" y="82" font-family="serif" font-size="28" font-weight="700" text-anchor="middle" dominant-baseline="middle" class="l3-node-text l3-node-3">3</text>

    <!-- Node 4: Bottom Right -->
    <circle cx="550" cy="320" r="36" class="node-bg" />
    <circle cx="550" cy="320" r="30" fill="none" stroke-width="2" class="l3-node-circle l3-node-4"/>
    <text x="550" y="322" font-family="serif" font-size="28" font-weight="700" text-anchor="middle" dominant-baseline="middle" class="l3-node-text l3-node-4">4</text>
  </g>

</svg>
