<svg xmlns="http://www.w3.org/2000/svg" viewBox="0 0 800 400" width="100%" height="100%" style="font-family: system-ui, -apple-system, sans-serif;">
  
  <defs>
    <style>
      :root {
        /* Colores Base Llamativos */
        --bg-color: #030912;
        --left-color: #0077ff; /* Electric Blue */
        --right-color: #ffaa00; /* Vibrant Gold */
        --guide-color: rgba(255, 255, 255, 0.15);
      }

      /* Clases de trazado múltiple */
      .track-outer { fill: none; stroke-width: 70px; }
      .track-outer-mask { fill: none; stroke: var(--bg-color); stroke-width: 68px; }
      .track-main { fill: none; stroke-width: 40px; }
      .track-inner-mask { fill: none; stroke: var(--bg-color); stroke-width: 16px; }
      .track-center { fill: none; stroke-width: 2px; }
      
      .guide { fill: none; stroke: var(--guide-color); stroke-width: 1px; }
      .node-bg { fill: var(--bg-color); }
      
      /* Light Trace Styling */
      .light-trace {
        fill: none;
        stroke-width: 8px;
        stroke-linecap: round;
        stroke-dasharray: 15 100;
        stroke-dashoffset: 100;
      }
      .trace-left { stroke: url(#left-glow); filter: drop-shadow(0 0 15px #00aaff); }
      .trace-right { stroke: url(#right-glow); filter: drop-shadow(0 0 15px #ffcc00); }
    </style>
    
    <linearGradient id="left-glow" x1="0%" y1="0%" x2="100%" y2="0%">
      <stop offset="0%" stop-color="#fff" />
      <stop offset="50%" stop-color="#00aaff" />
      <stop offset="100%" stop-color="#0077ff" />
    </linearGradient>
    <linearGradient id="right-glow" x1="0%" y1="0%" x2="100%" y2="0%">
      <stop offset="0%" stop-color="#fff" />
      <stop offset="50%" stop-color="#ffcc00" />
      <stop offset="100%" stop-color="#ffaa00" />
    </linearGradient>
  </defs>

  <g id="guidelines">
    <path class="guide" d="M 80 200 L 180 200 M 130 150 L 130 250" />
    <path class="guide" d="M 620 200 L 720 200 M 670 150 L 670 250" />
    <path class="guide" d="M 350 200 L 450 200 M 400 150 L 400 250" />
  </g>

  <g id="right-loop">
    <path class="track-outer" stroke="var(--right-color)" d="M 400 200 C 440 280, 484 320, 550 320 A 120 120 0 0 0 670 200 A 120 120 0 0 0 550 80 C 484 80, 440 120, 400 200" />
    <path class="track-outer-mask" d="M 400 200 C 440 280, 484 320, 550 320 A 120 120 0 0 0 670 200 A 120 120 0 0 0 550 80 C 484 80, 440 120, 400 200" />
    
    <path class="track-main" stroke="var(--right-color)" d="M 400 200 C 440 280, 484 320, 550 320 A 120 120 0 0 0 670 200 A 120 120 0 0 0 550 80 C 484 80, 440 120, 400 200" />
    
    <path class="track-inner-mask" d="M 400 200 C 440 280, 484 320, 550 320 A 120 120 0 0 0 670 200 A 120 120 0 0 0 550 80 C 484 80, 440 120, 400 200" />
    
    <path class="track-center" stroke="var(--right-color)" d="M 400 200 C 440 280, 484 320, 550 320 A 120 120 0 0 0 670 200 A 120 120 0 0 0 550 80 C 484 80, 440 120, 400 200" />
  </g>

  <g id="left-loop">
    <path class="track-outer" stroke="var(--left-color)" d="M 400 200 C 360 120, 316 80, 250 80 A 120 120 0 0 0 130 200 A 120 120 0 0 0 250 320 C 316 320, 360 280, 400 200" />
    <path class="track-outer-mask" d="M 400 200 C 360 120, 316 80, 250 80 A 120 120 0 0 0 130 200 A 120 120 0 0 0 250 320 C 316 320, 360 280, 400 200" />
    
    <path class="track-main" stroke="var(--left-color)" d="M 400 200 C 360 120, 316 80, 250 80 A 120 120 0 0 0 130 200 A 120 120 0 0 0 250 320 C 316 320, 360 280, 400 200" />
    
    <path class="track-inner-mask" d="M 400 200 C 360 120, 316 80, 250 80 A 120 120 0 0 0 130 200 A 120 120 0 0 0 250 320 C 316 320, 360 280, 400 200" />
    
    <path class="track-center" stroke="var(--left-color)" d="M 400 200 C 360 120, 316 80, 250 80 A 120 120 0 0 0 130 200 A 120 120 0 0 0 250 320 C 316 320, 360 280, 400 200" />
  </g>

  <g id="nodes">
    <circle cx="130" cy="200" r="36" class="node-bg" />
    <circle cx="130" cy="200" r="30" fill="none" stroke="var(--left-color)" stroke-width="2"/>
    <circle cx="130" cy="200" r="22" fill="none" stroke="var(--left-color)" stroke-width="6"/>
    <circle cx="130" cy="200" r="12" fill="none" stroke="var(--left-color)" stroke-width="2"/>

    <circle cx="670" cy="200" r="36" class="node-bg" />
    <circle cx="670" cy="200" r="30" fill="none" stroke="var(--right-color)" stroke-width="2"/>
    <circle cx="670" cy="200" r="22" fill="none" stroke="var(--right-color)" stroke-width="6"/>
    <circle cx="670" cy="200" r="12" fill="none" stroke="var(--right-color)" stroke-width="2"/>

    <circle cx="400" cy="200" r="45" class="node-bg" />
    <circle cx="400" cy="200" r="40" fill="none" stroke="var(--guide-color)" stroke-width="2"/>
    <circle cx="400" cy="200" r="32" fill="none" stroke="var(--left-color)" stroke-width="4"/>
    <circle cx="400" cy="200" r="24" fill="none" stroke="var(--right-color)" stroke-width="4"/>
    <circle cx="400" cy="200" r="14" class="node-bg" stroke="var(--guide-color)" stroke-width="2"/>
  </g>

  <g id="arrows">
    <polygon points="255,75 245,80 255,85" fill="var(--left-color)" />
    <polygon points="245,315 255,320 245,325" fill="var(--left-color)" />
    
    <polygon points="545,75 555,80 545,85" fill="var(--right-color)" />
    <polygon points="555,315 545,320 555,325" fill="var(--right-color)" />
  </g>

  <!-- LIGHT TRACE PATHS -->
  <!-- Left Trace: Center -> Top Left -> Bottom Left -> Center -->
  <path id="light-trace-left" class="light-trace trace-left" d="M 400 200 C 360 120, 316 80, 250 80 A 120 120 0 0 0 130 200 A 120 120 0 0 0 250 320 C 316 320, 360 280, 400 200" pathLength="100" />
  
  <!-- Right Trace: Center -> Top Right -> Bottom Right -> Center (Matches arrow directions) -->
  <path id="light-trace-right" class="light-trace trace-right" d="M 400 200 C 440 120, 484 80, 550 80 A 120 120 0 0 1 670 200 A 120 120 0 0 1 550 320 C 484 320, 440 280, 400 200" pathLength="100" />
</svg>
